#!OML:ASF I:\Actors\actors\Patient Classification 1\Patient 1\Session 1\Subject1.ASF
:FULLY-SPECIFIED
:DEGREES
810
root 0.565332 17.5856 8.06887 8.03584 -2.48266 -6.45024
lowerback 8.37659 -1.19805 5.43568
upperback -9.80384 -0.472816 2.33976
thorax -15.7419 -0.658502 -0.303634
lowerneck -2.64792 -12.7535 -12.5147
upperneck 30.4705 -17.2805 0.83731
head 11.6151 -9.28034 0.346761
rclavicle -1.23619e-014 3.77691e-015
rhumerus -48.4555 28.0422 -105.185
rradius 28.0242
rwrist 6.98258
rhand 14.1555 -27.8192
rfingers 7.12502
rthumb 39.0561 -53.3232
lclavicle -1.23619e-014 3.77691e-015
lhumerus -38.508 3.80028 83.0747
lradius 17.5075
lwrist -23.7457
lhand -10.012 -12.9479
lfingers 7.12502
lthumb 15.9721 16.4136
rfemur -0.703091 26.6112 23.4552
rtibia 0.745071
rfoot -11.7537 -26.333
rtoes 3.18505
lfemur 6.97255 -40.894 -15.0558
ltibia -4.45363
lfoot -16.0991 47.4245
ltoes 4.70421
811
root 0.563319 17.5836 8.0732 8.03989 -2.51164 -6.48055
lowerback 8.37759 -1.22605 5.45071
upperback -9.85695 -0.503263 2.36311
thorax -15.8106 -0.674179 -0.276684
lowerneck -2.45606 -12.8189 -12.4087
upperneck 30.197 -17.3668 0.730633
head 11.4538 -9.32448 0.310241
rclavicle -9.38015e-015 2.56432e-014
rhumerus -48.0559 27.1049 -104.481
rradius 27.7789
rwrist 7.52474
rhand 13.9649 -27.8659
rfingers 7.12502
rthumb 38.8764 -53.4212
lclavicle -9.38015e-015 2.56432e-014
lhumerus -38.7878 4.74036 82.4576
lradius 17.7635
lwrist -23.4807
lhand -10.9079 -13.265
lfingers 7.12502
lthumb 15.1092 16.1636
rfemur -0.675441 26.662 23.5066
rtibia 0.712706
rfoot -11.7904 -26.3498
rtoes 3.41677
lfemur 7.02909 -40.9429 -15.0665
ltibia -4.44553
lfoot -16.2812 47.5038
ltoes 4.59426
812
root 0.561527 17.5819 8.07615 8.04566 -2.50263 -6.5304
lowerback 8.37189 -1.27114 5.48364
upperback -9.90789 -0.553371 2.39757
thorax -15.874 -0.699999 -0.242946
lowerneck -2.26843 -12.873 -12.3897
upperneck 29.9422 -17.4525 0.710295
head 11.3201 -9.36789 0.314179
rclavicle -5.03174e-015 1.64991e-014
rhumerus -47.6904 26.233 -103.814
rradius 27.5321
rwrist 8.11961
rhand 13.7606 -27.8433
rfingers 7.12502
rthumb 38.6838 -53.4532
lclavicle -5.03174e-015 1.64991e-014
lhumerus -39.0575 5.82449 81.7733
lradius 18.0108
lwrist -23.1636
lhand -11.9249 -13.7083
lfingers 7.12502
lthumb 14.1293 15.7913
rfemur -0.654762 26.6777 23.5754
rtibia 0.680538
rfoot -11.7919 -26.3661
rtoes 3.42352
lfemur 7.02124 -40.8949 -14.9921
ltibia -4.44012
lfoot -16.2124 47.4754
ltoes 4.39581
813
root 0.559647 17.58 8.07866 8.02596 -2.49786 -6.51515
lowerback 8.36094 -1.32185 5.42765
upperback -9.92252 -0.62786 2.43006
thorax -15.8868 -0.725944 -0.158265
lowerneck -2.10639 -12.91 -12.4469
upperneck 29.6254 -17.5273 0.797514
head 11.1866 -9.40127 0.367075
rclavicle 1.47349e-014 1.78906e-014
rhumerus -47.2576 25.4063 -103.134
rradius 27.2395
rwrist 8.72859
rhand 13.5527 -27.6199
rfingers 7.12502
rthumb 38.4876 -53.2848
lclavicle 1.47349e-014 1.78906e-014
lhumerus -39.3314 6.84702 81.1485
lradius 18.3662
lwrist -22.623
lhand -12.1846 -13.9089
lfingers 7.12502
lthumb 13.8791 15.6079
rfemur -0.616888 26.6022 23.5804
rtibia 0.675219
rfoot -11.7344 -26.3112
rtoes 3.02061
lfemur 7.04269 -40.8164 -15.0072
ltibia -4.45069
lfoot -16.084 47.4075
ltoes 4.45245
814
root 0.557541 17.5779 8.08122 8.00314 -2.49292 -6.50814
lowerback 8.3284 -1.35566 5.39424
upperback -9.91521 -0.680363 2.44677
thorax -15.8578 -0.744782 -0.110422
lowerneck -1.88868 -12.9514 -12.4769
upperneck 29.2311 -17.6232 0.922848
head 11.0158 -9.43837 0.434168
rclavicle -7.31776e-015 1.17283e-014
rhumerus -46.7343 24.4654 -102.389
rradius 26.9321
rwrist 9.33484
rhand 13.4175 -27.5035
rfingers 7.12502
rthumb 38.3601 -53.2039
lclavicle -7.31776e-015 1.17283e-014
lhumerus -39.5882 7.75946 80.5877
lradius 18.7216
lwrist -22.115
lhand -12.8193 -14.348
lfingers 7.12502
lthumb 13.2674 15.2097
rfemur -0.592329 26.477 23.5902
rtibia 0.696759
rfoot -11.722 -26.1996
rtoes 2.78036
lfemur 7.11288 -40.8624 -15.0614
ltibia -4.45903
lfoot -16.1397 47.4462
ltoes 4.40511
815
root 0.554995 17.5757 8.08359 7.9846 -2.50183 -6.59931
lowerback 8.2981 -1.37435 5.4633
upperback -9.90739 -0.692734 2.48488
thorax -15.8312 -0.755014 -0.104211
lowerneck -1.70278 -13.0286 -12.4376
upperneck 28.9207 -17.7217 0.847202
head 10.8573 -9.49019 0.417543
rclavicle 3.2054e-015 -8.74653e-015
rhumerus -46.2816 23.5548 -101.695
rradius 26.6617
rwrist 9.87062
rhand 13.273 -27.4812
rfingers 7.12502
rthumb 38.2236 -53.2193
lclavicle 3.2054e-015 -8.74653e-015
lhumerus -39.8621 8.70454 80.0111
lradius 19.0446
lwrist -21.9224
lhand -13.6952 -15.0889
lfingers 7.12502
lthumb 12.423 14.5219
rfemur -0.58525 26.3777 23.7069
rtibia 0.728259
rfoot -11.7179 -26.0856
rtoes 2.71819
lfemur 7.18162 -40.8215 -14.9699
ltibia -4.5117
lfoot -16.1696 47.4339
ltoes 4.73552
